<svg version="1.2" xmlns="http://www.w3.org/2000/svg" viewBox="0 0 310 310" width="310" height="310"><style></style><path  d="m78.5 103.9h-57.5c-2.6 0-4.6 2.1-4.6 4.7v184.7c0 2.5 2 4.6 4.6 4.6h57.5c2.5 0 4.6-2.1 4.6-4.6v-184.7c0-2.6-2.1-4.7-4.6-4.7z"/><path  d="m49.7 87.9c-20.9 0-37.9-16.9-37.9-37.9 0-20.9 17-37.9 37.9-37.9 21 0 38 17 38 37.9 0 21-17 37.9-38 37.9z"/><path  d="m224.7 99.4c-23.1 0-40.2 9.9-50.5 21.2v-12c0-2.6-2.1-4.7-4.6-4.7h-55.1c-2.5 0-4.6 2.1-4.6 4.7v184.7c0 2.5 2.1 4.6 4.6 4.6h57.4c2.5 0 4.6-2.1 4.6-4.6v-91.4c0-30.8 8.4-42.8 29.8-42.8 23.4 0 25.3 19.2 25.3 44.4v89.8c0 2.5 2 4.6 4.6 4.6h57.4c2.5 0 4.6-2.1 4.6-4.6v-101.4c0-45.7-8.7-92.5-73.5-92.5z"/></svg>