<svg version="1.2" xmlns="http://www.w3.org/2000/svg" viewBox="0 0 71 77" width="71" height="77"><style>.a{fill:#fff}.b{fill:#ed1f20}.c{fill:#2dec2d}.d{fill:#2853e4}</style><path fill-rule="evenodd" class="a" d="m17.7 51.9l7.4 7.5-0.8 0.4c-0.5 0.2-1.3 0.8-1.9 1.2-0.8 0.7-1.3 1.5-3.3 5.6-1.2 2.6-2.7 5.4-3.3 6.3-0.5 0.8-1.4 1.8-2 2.3-0.5 0.4-1.6 1-2.3 1.3-0.7 0.3-1.7 0.5-2.3 0.5-0.5 0-1.6-0.2-2.3-0.4-0.7-0.3-1.7-0.8-2.3-1.2-0.6-0.3-1.4-1.1-1.9-1.5-0.4-0.5-1.1-1.4-1.4-2-0.4-0.5-0.8-1.7-1-2.5-0.2-1.1-0.2-1.8-0.1-2.7 0.2-0.6 0.5-1.5 0.7-2 0.3-0.5 0.9-1.4 1.3-1.9 0.5-0.5 1.5-1.3 2.3-1.8 0.8-0.5 3.5-1.9 6-3.1 3.7-1.8 4.8-2.5 5.5-3.2 0.5-0.6 1-1.4 1.2-1.9zm-11.2 13.4c-0.3 0.3-0.7 1.1-0.9 1.6-0.1 0.6-0.1 1.2 0.1 1.9 0.1 0.5 0.5 1.3 0.8 1.6 0.4 0.4 0.8 0.8 1.1 0.9 0.2 0.1 0.9 0.3 1.4 0.3 0.5 0.1 1.2 0 1.6-0.1 0.4-0.1 1.1-0.6 1.6-1.2 0.5-0.5 0.9-1.2 1-1.8 0-0.4 0-1.2-0.1-1.6-0.2-0.5-0.5-1.1-0.8-1.5-0.2-0.3-0.7-0.7-1.1-0.9-0.3-0.2-1-0.4-1.4-0.5-0.5-0.1-1.2 0-1.7 0.2-0.6 0.2-1.3 0.7-1.6 1.1zm11.3-37.9c0.1 0 7.3 7.1 16 15.8 8.8 8.8 15.9 16 15.9 16.1 0 0.1-0.6 0.7-1.3 1.4-0.8 0.7-1.4 1.3-1.5 1.3 0 0-7.3-7.2-31.9-31.8l1.3-1.4c0.8-0.8 1.5-1.4 1.5-1.4zm-2.5 7.4c0.1 0 6.2 6 13.6 13.4 7.4 7.4 13.4 13.5 13.4 13.6 0 0.1-0.5 0.3-1.1 0.5-0.6 0.2-1.9 0.5-2.8 0.5-1.2 0.1-2.2 0-3.2-0.2-0.9-0.2-2.2-0.8-2.9-1.2-1-0.6-3-2.4-7.6-7l-7.5-7.5c-0.7-0.8-1.5-1.9-1.8-2.5-0.3-0.6-0.7-1.8-0.9-2.7q-0.3-1.5-0.3-3c0.1-0.8 0.3-2.1 0.6-2.7 0.2-0.7 0.4-1.2 0.5-1.2z"/><path class="b" d="m61.4 1.2c-0.4 0.6-1.3 1.6-2 2.4-0.8 0.7-2.1 1.9-2.9 2.7-0.8 0.7-1.9 1.5-2.5 1.9-0.6 0.3-2.2 1-3.7 1.5-1.5 0.5-4.1 1.2-5.9 1.6-1.8 0.4-4.5 0.9-6 1.2-1.5 0.2-3.6 0.6-4.6 0.9-1 0.2-2.5 0.6-3.2 0.9-0.8 0.3-2.1 1-2.9 1.6-0.8 0.5-2.2 1.7-3.1 2.5-0.9 0.9-2 2.1-2.6 2.8-0.5 0.7-1.2 1.8-1.5 2.5-0.4 0.7-0.7 1.3-0.7 1.4 0 0.2 1.7 1.9 3.6 3.8l3.6 3.6c1.7-2 2.6-3 3.1-3.5 0.5-0.4 1.6-1.2 2.3-1.7 0.8-0.5 2.1-1.1 2.9-1.5 0.8-0.3 2.2-0.8 3.1-1 0.9-0.2 3.2-0.5 5.2-0.7 2-0.2 4.2-0.5 4.9-0.7 0.7-0.2 1.8-0.7 2.6-1.1 0.8-0.3 2.2-1.3 3.1-2.1 1-0.8 2.3-2.1 3.1-3 0.8-1 1.8-2.6 2.5-3.9 0.6-1.3 1.3-3.3 1.7-4.5 0.3-1.2 0.6-3.2 0.8-4.3 0.1-1.1 0.2-2.5 0.3-3 0-0.6-0.1-1.1-0.3-1.1-0.1-0.1-0.5 0.3-0.9 0.8z"/><path class="c" d="m65.6 7.7c-0.2 1-0.6 2.7-0.9 3.7-0.4 1-1 2.7-1.5 3.7-0.5 1-1.3 2.3-1.7 2.9-0.3 0.6-1.2 1.6-1.9 2.4-0.6 0.8-2 2.1-3.1 2.9-1 0.8-2.5 1.8-3.2 2.2-0.8 0.4-2.2 1-3.2 1.4-1.2 0.4-3.1 0.7-6.1 1-2.9 0.3-4.9 0.6-6 1-0.9 0.3-2.2 0.9-3 1.3-0.7 0.5-1.7 1.2-2.2 1.6-0.5 0.5-1.3 1.4-1.9 2-0.5 0.7-0.9 1.3-0.9 1.5 0 0.1 2 2.2 4.4 4.6 2.5 2.4 4.6 4.5 4.8 4.6 0.2 0.2 0.6-0.1 1.5-0.9 0.7-0.6 1.9-1.5 2.8-2 0.9-0.5 2.1-1.1 2.6-1.3 0.6-0.2 2.4-0.7 4-1 1.6-0.3 3.6-0.9 4.6-1.2 0.9-0.3 2.4-0.9 3.2-1.4 0.8-0.5 1.9-1.3 2.6-1.9 0.7-0.6 1.8-1.8 2.5-2.8 0.7-0.9 1.5-2.1 1.8-2.6 0.3-0.5 0.9-1.4 1.2-2.1 0.3-0.6 0.7-1.8 0.9-2.6 0.3-0.9 0.6-2.6 0.7-3.8 0.2-1.4 0.2-3.5 0.1-5.2-0.1-1.6-0.3-4.3-0.6-6-0.2-1.7-0.5-3.3-0.5-3.5-0.1-0.3-0.2-0.4-0.4-0.4-0.1 0-0.3 0.8-0.6 1.9z"/><path class="d" d="m69.4 28.8c-0.4 1-1.2 2.5-1.7 3.4-0.6 0.8-1.7 2.3-2.5 3.2-0.8 0.9-1.8 2-2.3 2.4-0.5 0.4-1.3 1.1-1.8 1.5-0.6 0.3-1.6 0.9-2.4 1.3-0.7 0.4-1.9 0.9-2.6 1.1-0.7 0.2-2.3 0.7-3.6 0.9-1.3 0.3-2.8 0.7-3.4 0.8-0.5 0.1-1.7 0.5-2.5 0.9-0.8 0.4-2.1 1.2-2.9 1.8-0.8 0.6-1.5 1.2-1.5 1.3 0 0.1 2.2 2.4 4.8 5l4.8 4.8c2.7-1.3 4.5-2.4 5.8-3.2 1.3-0.9 3.1-2.4 4.2-3.5 1.1-1.1 2.5-2.7 3.1-3.6 0.6-0.9 1.3-2.2 1.7-3 0.4-0.7 1.1-2.5 1.5-3.8 0.5-1.3 1.1-3.4 1.3-4.6 0.3-1.2 0.6-3.2 0.7-4.4 0.2-1.2 0.2-2.6 0.2-3.1l-0.2-0.9z"/></svg>