<svg version="1.2" xmlns="http://www.w3.org/2000/svg" viewBox="0 0 1280 720" width="1280" height="720">
	<title>SubSatCMY</title>
	<style>
		tspan { white-space:pre } 
		.s0 { fill: #282828;stroke: #171717;stroke-miterlimit:100;stroke-width: 4 } 
		.s1 { fill: #171717 } 
		.s2 { fill: #717171;stroke: #171717;stroke-miterlimit:100;stroke-width: 4 } 
		.t3 { font-size: 64px;fill: #c4c4c4;font-weight: 400;font-family: monospace, sans-serif }
		.s4 { fill: #fad042;stroke: #171717;stroke-miterlimit:100;stroke-width: 4 } 
		.s5 { fill: #8861d0;stroke: #171717;stroke-miterlimit:100;stroke-width: 4 } 
		.s6 { fill: #0470b9;stroke: #171717;stroke-miterlimit:100;stroke-width: 4 } 
		.s7 { fill: #e23260 } 
		.s8 { fill: #c2c2c4 } 
		.s9 { fill: #e7a334 } 
		.s10 { fill: none;stroke: #3d3d3d;stroke-miterlimit:100;stroke-width: 4 } 
		.s11 { fill: #1f1f1f;stroke: #000000;stroke-miterlimit:100;stroke-width: 4 } 
		.s12 { fill: #c4c4c4 } 

        @keyframes slider1 {
            0% {
                transform: translateX(0px);
            }
            5% {
                transform: translateX(0px);
            }
            15% {
                transform: translateX(-150px);
            }
            75% {
                transform: translateX(-150px);
            }
            80% {
                transform: translateX(-50px);
            }
            100% {
                transform: translateX(-50px);
            }
        }

        @keyframes slider2 {
            0% {
                transform: translateX(-40px);
            }
            17% {
                transform: translateX(-40px);
            }
            22% {
                transform: translateX(70px);
            }
            45% {
                transform: translateX(70px);
            }
            50% {
                transform: translateX(30px);
            }
            100% {
                transform: translateX(30px);
            }
        }

        @keyframes slider3 {
            0% {
                transform: translateX(10px);
            }
            25% {
                transform: translateX(10px);
            }
            30% {
                transform: translateX(-30px);
            }
            60% {
                transform: translateX(-30px);
            }
            65% {
                transform: translateX(-80px);
            }
            100% {
                transform: translateX(-80px);
            }
        }

        @keyframes slider4 {
            0% {
                transform: translateX(-20px);
            }
            35% {
                transform: translateX(-20px);
            }
            40% {
                transform: translateX(50px);
            }
            100% {
                transform: translateX(50px);
            }
        }

        #Control1 {
            animation: slider1 10s ease-in-out infinite alternate;
        }

        #Control2 {
            animation: slider2 10s ease-in-out infinite alternate;
        }

        #Control3 {
            animation: slider3 10s ease-in-out infinite alternate;
        }

        #Control4 {
            animation: slider4 10s ease-in-out infinite alternate;
        }
	</style>
	<path id="Window" class="s0" d="m30 0h1220c16.6 0 30 13.4 30 30v660c0 16.6-13.4 30-30 30h-1220c-16.6 0-30-13.4-30-30v-660c0-16.6 13.4-30 30-30z"/>
	<g id="Slider4">
		<path id="Line4" class="s1" d="m428.8 630.8v-6.3h821.2v6.3z"/>
		<path id="Control4" class="s2" d="m839 651.1c-12.8 0-23.1-10.3-23.1-23.1 0-12.8 10.3-23.1 23.1-23.1 12.8 0 23.1 10.3 23.1 23.1 0 12.8-10.3 23.1-23.1 23.1z"/>
		<text id="Yellow" style="transform: matrix(1,0,0,1,319,648)" >
			<tspan x="-230.4" y="0" class="t3">Y</tspan><tspan  y="0" class="t3">e</tspan><tspan  y="0" class="t3">l</tspan><tspan  y="0" class="t3">l</tspan><tspan  y="0" class="t3">o</tspan><tspan  y="0" class="t3">w</tspan><tspan  y="0" class="t3">
</tspan>
		</text>
		<path id="Yellow-emoji" class="s4" d="m371 648c-12.7 0-23-10.3-23-23 0-12.7 10.3-23 23-23 12.7 0 23 10.3 23 23 0 12.7-10.3 23-23 23z"/>
	</g>
	<g id="Slider3">
		<path id="Line3" class="s1" d="m428.8 528.8v-6.3h821.2v6.3z"/>
		<path id="Control3" class="s2" d="m839 549.1c-12.8 0-23.1-10.3-23.1-23.1 0-12.8 10.3-23.1 23.1-23.1 12.8 0 23.1 10.3 23.1 23.1 0 12.8-10.3 23.1-23.1 23.1z"/>
		<text id="Magenta" style="transform: matrix(1,0,0,1,319,546)" >
			<tspan x="-268.8" y="0" class="t3">M</tspan><tspan  y="0" class="t3">a</tspan><tspan  y="0" class="t3">g</tspan><tspan  y="0" class="t3">e</tspan><tspan  y="0" class="t3">n</tspan><tspan  y="0" class="t3">t</tspan><tspan  y="0" class="t3">a</tspan><tspan  y="0" class="t3">
</tspan>
		</text>
		<path id="Magenta-emoji" class="s5" d="m371 546c-12.7 0-23-10.3-23-23 0-12.7 10.3-23 23-23 12.7 0 23 10.3 23 23 0 12.7-10.3 23-23 23z"/>
	</g>
	<g id="Slider2">
		<path id="Line2" class="s1" d="m428.8 426.8v-6.3h821.2v6.3z"/>
		<path id="Control2" class="s2" d="m839 447.1c-12.8 0-23.1-10.3-23.1-23.1 0-12.8 10.3-23.1 23.1-23.1 12.8 0 23.1 10.3 23.1 23.1 0 12.8-10.3 23.1-23.1 23.1z"/>
		<text id="Cyan" style="transform: matrix(1,0,0,1,319,444)" >
			<tspan x="-153.6" y="0" class="t3">C</tspan><tspan  y="0" class="t3">y</tspan><tspan  y="0" class="t3">a</tspan><tspan  y="0" class="t3">n</tspan><tspan  y="0" class="t3">
</tspan>
		</text>
		<path id="Cyan-emoji" class="s6" d="m371 444c-12.7 0-23-10.3-23-23 0-12.7 10.3-23 23-23 12.7 0 23 10.3 23 23 0 12.7-10.3 23-23 23z"/>
	</g>
	<g id="Slider1">
		<path id="Line1" class="s1" d="m428.8 323.8v-6.3h821.2v6.3z"/>
		<path id="Control1" class="s2" d="m839 344.1c-12.8 0-23.1-10.3-23.1-23.1 0-12.8 10.3-23.1 23.1-23.1 12.8 0 23.1 10.3 23.1 23.1 0 12.8-10.3 23.1-23.1 23.1z"/>
		<g id="Brush-emoji">
			<path id="path1" fill-rule="evenodd" class="s7" d="m393.8 294.3q-0.6 0.1-1.4 0.5c-0.8 0.4-1 0.6-2.6 2.1-0.5 0.4-1.2 1.1-1.7 1.5-0.4 0.5-1.1 1.1-1.5 1.5-0.4 0.4-1.2 1.1-1.8 1.7-0.5 0.5-1.3 1.2-1.7 1.6-0.7 0.7-2.5 2.3-4 3.7-0.5 0.5-1.1 1.1-1.4 1.4-0.3 0.3-0.9 0.8-1.3 1.2-0.8 0.7-1.6 1.5-3.5 3.3-0.6 0.5-1.4 1.3-1.9 1.7-4.3 4.1-5.9 5.6-5.7 5.7 0 0 0.1 0 0.2 0.1 0.3 0.1 7.1 7 7.3 7.4l0.2 0.3 0.3-0.3c0.3-0.2 2.4-2.4 5.8-5.8 0.5-0.6 2-2.1 3.2-3.4 1.3-1.3 2.6-2.7 3-3.1 0.4-0.4 1.3-1.3 2-2 1.2-1.3 4.4-4.6 5.6-5.9 0.7-0.6 1.2-1.2 3.5-3.6 2.1-2 2.5-2.6 2.7-3.8 0.9-3.2-2-6.3-5.3-5.8z"/>
			<path id="path2" fill-rule="evenodd" class="s8" d="m365 320.4c-0.3 0.2-1.9 1.6-2.6 2.4-0.6 0.7-0.7 0.8-1 1.6l-0.1 0.4 0.1 0.2c0.4 0.7 0.7 1.1 3.6 4 1.8 1.8 2.3 2.3 2.9 2.7l0.2 0.2 0.6-0.2c0.9-0.2 1.1-0.3 2.6-1.8 1.3-1.3 1.6-1.7 1.6-2 0-0.2-0.3-0.6-1.2-1.5-0.6-0.5-2-2-3.3-3.3-3-3.1-3-3-3.4-2.7z"/>
			<path id="path3" fill-rule="evenodd" class="s9" d="m361.2 324.8c-0.1 0.1-0.6 0.1-1.3 0.1-1.9 0-2.6 0.2-4.3 1.5-2.1 1.6-2.7 2.8-2.9 5.4-0.1 2.9-0.4 3.8-2 5.4-1.2 1.3-1 1.6 1.5 2.4 3.3 1 3.7 1.1 4.6 1.2 3.5 0.3 6.8-0.9 9.2-3.4 1.4-1.3 1.8-2.4 2-4.3 0-0.5 0.1-1 0.1-1.1 0-0.1 0-0.1-0.4-0.4-0.7-0.6-5.4-5.3-5.9-6-0.2-0.2-0.3-0.5-0.4-0.6-0.1-0.2-0.2-0.2-0.2-0.2z"/>
		</g>
		<text id="Master" style="transform: matrix(1,0,0,1,319,341)" >
			<tspan x="-230.4" y="0" class="t3">M</tspan><tspan  y="0" class="t3">a</tspan><tspan  y="0" class="t3">s</tspan><tspan  y="0" class="t3">t</tspan><tspan  y="0" class="t3">e</tspan><tspan  y="0" class="t3">r</tspan><tspan  y="0" class="t3">
</tspan>
		</text>
	</g>
	<g id="Reload-btn">
		<path id="Reload-bg" class="s10" d="m474 166h412c23.7 0 43 19.3 43 43v1c0 23.7-19.3 43-43 43h-412c-23.7 0-43-19.3-43-43v-1c0-23.7 19.3-43 43-43z"/>
		<text id="Reload-text" style="transform: matrix(1,0,0,1,679,233)" >
			<tspan x="-211.2" y="0" class="t3">R</tspan><tspan  y="0" class="t3">e</tspan><tspan  y="0" class="t3">l</tspan><tspan  y="0" class="t3">o</tspan><tspan  y="0" class="t3">a</tspan><tspan  y="0" class="t3">d</tspan><tspan  y="0" class="t3"> </tspan><tspan  y="0" class="t3">D</tspan><tspan  y="0" class="t3">C</tspan><tspan  y="0" class="t3">T</tspan><tspan  y="0" class="t3">L
</tspan>
		</text>
	</g>
	<g id="Dropdown">
		<path id="Dropdown-bg" class="s11" d="m457 48h766c14.4 0 26 11.6 26 26v35c0 14.4-11.6 26-26 26h-766c-14.4 0-26-11.6-26-26v-35c0-14.4 11.6-26 26-26z"/>
		<path id="Chevron" fill-rule="evenodd" class="s12" d="m1194 108.1c1.4 1.4 3.6 1.4 5 0l21.6-21.6c1.4-1.4 1.4-3.7 0-5.1-1.4-1.4-3.7-1.4-5.1 0l-19 19-19-19c-1.4-1.4-3.7-1.4-5.1 0-1.4 1.4-1.4 3.7 0 5.1 0 0 21.6 21.6 21.6 21.6z"/>
		<text id="Name" style="transform: matrix(1,0,0,1,452,115)" >
			<tspan x="0" y="0" class="t3">K</tspan><tspan  y="0" class="t3">H</tspan><tspan  y="0" class="t3"> </tspan><tspan  y="0" class="t3">S</tspan><tspan  y="0" class="t3">u</tspan><tspan  y="0" class="t3">b</tspan><tspan  y="0" class="t3">S</tspan><tspan  y="0" class="t3">a</tspan><tspan  y="0" class="t3">t</tspan><tspan  y="0" class="t3">C</tspan><tspan  y="0" class="t3">M</tspan><tspan  y="0" class="t3">Y</tspan><tspan  y="0" class="t3"> </tspan><tspan  y="0" class="t3">v</tspan><tspan  y="0" class="t3">1</tspan><tspan  y="0" class="t3">.</tspan><tspan  y="0" class="t3">1</tspan><tspan  y="0" class="t3">
</tspan>
		</text>
	</g>
	<text id="List" style="transform: matrix(1,0,0,1,399,115)" >
		<tspan x="-345.7" y="0" class="t3">D</tspan><tspan  y="0" class="t3">C</tspan><tspan  y="0" class="t3">T</tspan><tspan  y="0" class="t3">L</tspan><tspan  y="0" class="t3"> </tspan><tspan  y="0" class="t3">L</tspan><tspan  y="0" class="t3">i</tspan><tspan  y="0" class="t3">s</tspan><tspan  y="0" class="t3">t</tspan><tspan  y="0" class="t3">
</tspan>
	</text>
</svg>